<?xml version="1.0" encoding="UTF-8" standalone="no"?>
<!-- Created with Inkscape (http://www.inkscape.org/) -->

<svg
   xmlns:dc="http://purl.org/dc/elements/1.1/"
   xmlns:cc="http://creativecommons.org/ns#"
   xmlns:rdf="http://www.w3.org/1999/02/22-rdf-syntax-ns#"
   xmlns:svg="http://www.w3.org/2000/svg"
   xmlns="http://www.w3.org/2000/svg"
   xmlns:sodipodi="http://sodipodi.sourceforge.net/DTD/sodipodi-0.dtd"
   xmlns:inkscape="http://www.inkscape.org/namespaces/inkscape"
   width="118.4613mm"
   height="241.28656mm"
   viewBox="0 0 419.74475 854.95237"
   id="svg4251"
   version="1.1"
   inkscape:version="0.91 r13725"
   sodipodi:docname="neuron7.svg">
  <defs
     id="defs4253" />
  <sodipodi:namedview
     id="base"
     pagecolor="#ffffff"
     bordercolor="#666666"
     borderopacity="1.0"
     inkscape:pageopacity="0.0"
     inkscape:pageshadow="2"
     inkscape:zoom="0.7"
     inkscape:cx="-24.118795"
     inkscape:cy="455.41107"
     inkscape:document-units="px"
     inkscape:current-layer="layer2"
     showgrid="false"
     inkscape:window-width="1280"
     inkscape:window-height="978"
     inkscape:window-x="-6"
     inkscape:window-y="-6"
     inkscape:window-maximized="1"
     fit-margin-left="10"
     fit-margin-top="10"
     fit-margin-right="10"
     fit-margin-bottom="10" />
  <metadata
     id="metadata4256">
    <rdf:RDF>
      <cc:Work
         rdf:about="">
        <dc:format>image/svg+xml</dc:format>
        <dc:type
           rdf:resource="http://purl.org/dc/dcmitype/StillImage" />
        <dc:title></dc:title>
      </cc:Work>
    </rdf:RDF>
  </metadata>
  <g
     inkscape:label="dendrite"
     inkscape:groupmode="layer"
     id="layer1"
     transform="translate(-3.5432955,-196.70125)"
     style="display:inline"
     sodipodi:insensitive="true">
    <path
       style="display:inline;fill:none;fill-rule:evenodd;stroke:#ff0000;stroke-width:0.85000002;stroke-linecap:round;stroke-linejoin:round;stroke-miterlimit:4;stroke-dasharray:none;stroke-opacity:1"
       d="m 291.30505,272.08639 -1.01015,5.80838 1.76777,6.81853 -1.2627,7.82868 -5.05076,5.80838 -4.79822,5.3033 c 0,0 -4.54569,3.78807 -5.80838,3.78807 -1.26269,0 -2.77792,0 -5.55584,0.25254 -2.77792,0.25254 -8.5863,0.75761 -8.5863,0.75761 0,0 -1.76776,1.01015 -2.52538,2.02031 l -4.54568,6.06091 c 0,0 0,0.75762 -1.26269,2.52538 -1.26269,1.76777 -1.76777,2.52538 -2.77792,3.53554 -1.01016,1.01015 -1.51523,0.25254 -3.03046,1.76776 -1.51523,1.51523 -1.01015,1.26269 -2.02031,2.77792 -1.01015,1.51523 -2.52538,3.53554 -2.52538,3.53554 0,0 -2.0203,1.76776 -3.03045,2.27284 -1.01016,0.50508 -3.283,1.01015 -3.283,1.01015 0,0 -0.50508,-1.01015 -2.02031,1.26269 -1.51522,2.27285 -1.51522,0.75762 -3.28299,5.05077 -0.42731,1.40865 -1.06854,-0.98691 -0.44194,2.71477"
       id="path4236"
       inkscape:connector-curvature="0"
       sodipodi:nodetypes="ccccccsscscsssscscscc" />
    <path
       style="display:inline;fill:none;fill-rule:evenodd;stroke:#ff0000;stroke-width:1.29999995;stroke-linecap:round;stroke-linejoin:round;stroke-miterlimit:4;stroke-dasharray:none;stroke-opacity:1"
       d="m 230.25396,341.0293 c 0.0631,0.31568 0.12815,4.84654 -0.64358,6.53101 -1.58579,3.46136 -1.09143,2.89164 -1.17351,7.45441 -0.36552,0.35431 -1.20012,2.40312 -1.45146,3.99818 0,0 -0.99085,2.46851 -0.0948,4.84713 0.74667,1.98206 -1.6616,4.3874 -1.79921,6.28882 -0.13762,1.90141 0.26981,3.5169 0.13173,4.48393 -0.5523,3.86813 -0.71421,5.62501 -2.47851,7.21841 -0.62862,2.8022 -0.73852,4.76242 -0.8876,6.40274 -0.14908,1.64032 1.26269,0.50508 0.75762,2.77792 -0.50508,2.27285 -1.76777,4.29315 -3.03046,6.31346 -1.26269,2.0203 0,9.84898 0,9.84898 0,0 -0.50508,4.54569 -0.50508,5.05077 0,0.50507 0.25254,2.27284 -0.50507,4.29314 -0.75762,2.02031 -0.75762,2.52539 -1.26269,4.79823 -0.50508,2.27284 0.25254,7.57614 0.25254,7.57614 0,0 1.01015,-0.25254 1.01015,2.27285 l 0,4.54568 c 0,1.51523 -0.25254,0.75762 -0.50508,2.27285 -0.25254,1.51522 -0.50507,1.51522 -0.50507,3.53553 0,2.0203 0,3.283 -0.25254,5.80838 -0.25254,2.52538 0,7.07106 0,7.07106 0,0 0.25254,0 0.50507,1.51523 0.25254,1.51523 0,0.75762 0.25254,3.03046 0.25254,2.27284 0.50508,3.53553 0.25254,4.79823 -0.25254,1.26269 0,1.01015 -0.75761,2.77792 -0.75762,1.76776 -0.75762,1.51522 -1.01016,3.53553 -0.25254,2.0203 -1.01015,1.26269 -0.25254,3.53553 0.75762,2.27285 1.2627,3.283 1.2627,5.80838 0,2.52538 0.25253,3.283 0.25253,4.54569 0,1.26269 0.25254,0.75761 -0.50507,3.03045 -0.75762,2.27285 -1.01016,1.26269 -1.26269,3.53554 -0.25254,2.27284 0,2.27284 -0.25254,3.78807 -0.25254,1.51523 -1.51523,1.51523 0,3.78807 1.51523,2.27285 1.76777,0.50508 2.27284,3.53554 0.50508,3.03045 0.50508,2.77792 0.25254,5.05076 -0.25254,2.27284 -0.50508,3.53553 -0.25254,4.54569 0.25254,1.01015 0,7.07106 0,7.07106 0,0 -0.25254,5.55584 -0.25254,7.07107 0,1.51523 -0.75761,6.31345 -0.75761,6.31345"
       id="path4238"
       inkscape:connector-curvature="0"
       sodipodi:nodetypes="csccsssczsscssscssssscssssssssssssssscsc" />
    <path
       style="display:inline;fill:none;fill-rule:evenodd;stroke:#ff0000;stroke-width:1.39999998;stroke-linecap:round;stroke-linejoin:round;stroke-miterlimit:4;stroke-dasharray:none;stroke-opacity:1"
       d="m 217.04352,532.33065 1.02547,7.95124 -1.01015,4.79823 -0.75762,6.06091 c 0,0 0,4.04061 0.25254,5.3033 0.25254,1.26269 1.01016,3.78807 1.01016,4.79823 0,1.01015 0,1.76776 0.25253,3.78807 0.25254,2.0203 1.26269,6.06091 1.26269,6.06091 0,0 -0.25253,1.26269 -0.25253,3.03046 0,1.76777 0,0.25254 -0.25254,4.54569 -0.25254,4.29315 -1.26269,5.3033 -0.75762,7.3236 0.50508,2.02031 0.75762,4.04061 1.51523,5.3033 0.75762,1.2627 1.01015,0.75762 1.26269,3.53554 0.25254,2.77792 -0.50507,1.01015 0.25254,3.53553 0.75762,2.52538 1.01015,1.76777 1.26269,3.78807 0.25254,2.02031 0.25254,2.02031 0.25254,4.29315 l 0,4.29315 c 0,5.80838 0.44643,4.63498 0.69897,6.15021 0.25254,1.51523 1.05348,6.94107 1.05348,6.94107"
       id="path4240"
       inkscape:connector-curvature="0"
       sodipodi:nodetypes="ccccssscssssssssssc" />
    <path
       style="display:inline;fill:#ff0000;fill-opacity:1;fill-rule:evenodd;stroke:#ff0000;stroke-width:1px;stroke-linecap:round;stroke-linejoin:round;stroke-opacity:1"
       d="m 224.3238,623.7801 -1.20405,6.91044 c -0.30652,1.75921 -0.75761,4.79823 -0.25253,6.31346 0.50507,1.51523 0.25253,2.52538 1.01015,4.54568 0.75761,2.02031 1.51523,5.55584 1.51523,7.32361 0,1.76777 -0.25254,3.53553 -0.25254,5.55584 0,2.0203 2.0203,6.06091 2.52538,8.33376 0.50508,2.27284 0.50508,2.77792 1.01015,5.3033 0.50508,2.52538 0.50508,6.81853 0.25254,8.83883 -0.25254,2.02031 -1.26269,1.26269 0.50508,4.04061 1.76776,2.77792 1.76776,3.78808 2.52538,5.80838 0.75761,2.02031 0.75761,0.25254 0.75761,4.29315 0,4.04061 -0.75761,2.52538 0.25254,5.05076 1.01015,2.52538 0.25254,2.77792 1.51523,4.29315 1.26269,1.51523 1.51523,0.25254 2.27284,2.77792 0.75762,2.52538 0.75762,2.0203 1.01016,3.53553 0.25253,1.51523 -0.25254,-1.01015 0.25253,2.02031 0.50508,3.03046 1.51523,6.81853 1.51523,6.81853 l 0.25254,7.57614 1.01015,4.04061 c 0,0 -1.51522,2.27285 -1.51522,3.283 0,1.01015 0.25253,5.3033 0.25253,5.3033 0,0 2.36371,1.16262 3.03046,3.03046 0.66675,1.86784 -0.75761,7.57614 -0.75761,7.57614 l 2.0203,3.03046 1.51523,3.09359 -1.51523,1.95717 -1.26269,1.76777 -3.03046,0.50507 -3.28299,-0.75761 -0.50508,-2.77792 -1.26269,-3.53553 0.50508,-1.76777 1.51523,-2.02031 c 0,0 1.76776,-0.25253 -0.25254,-2.0203 -2.02031,-1.76777 -2.27285,-3.03046 -2.27285,-3.03046 0,0 -0.75761,-1.26269 0,-2.52538 0.75762,-1.26269 -0.25253,-1.26269 1.26269,-2.0203 1.51523,-0.75762 2.02031,-0.50508 2.27285,-1.51523 0.25254,-1.01016 0,-4.79823 0,-4.79823 l 0,-2.52538 0.75761,-0.75761 0,-2.77792 -0.25254,-1.26269 0.25254,-4.79823 -1.01015,-5.17703 -0.44194,-3.03046 -0.50508,-2.65165 0.12627,-2.65165 -1.70463,-1.70463 -1.89404,-2.58852 -1.26269,-2.96732 -0.0631,-2.65165 0.25254,-2.58852 -0.37881,-3.4724 -1.26269,-3.09359 -1.95717,-4.48255 -0.69448,-1.6415 0.56821,-2.27284 0.1894,-4.79823 -0.75761,-4.73509 -1.19956,-5.61897 -1.76777,-5.3033 -0.3788,-3.34613 0.25254,-4.98763 -0.82075,-4.41942 -0.88389,-3.72493 -0.91638,-3.87737 0.12626,-4.16688 1.39346,-7.04754 0.0388,-5.90554 z"
       id="path4242"
       inkscape:connector-curvature="0"
       sodipodi:nodetypes="csssssssssssssssscccsczcccccccccccscsssccccccccccccccccccccccccccccccccc" />
    <path
       style="display:inline;fill:none;fill-rule:evenodd;stroke:#ff0000;stroke-width:0.85000002;stroke-linecap:round;stroke-linejoin:round;stroke-miterlimit:4;stroke-dasharray:none;stroke-opacity:1"
       d="m 193.67775,243.80564 -0.60922,4.97948 -3.55722,5.16269 -0.9162,6.68863 3.27878,5.91354 3.17328,5.44246 c 0,0 3.34277,4.14601 4.55777,4.4379 1.215,0.2919 2.673,0.64217 5.27726,1.49068 2.60425,0.84851 8.05576,2.60391 8.05576,2.60391 0,0 1.426,1.23403 1.88001,2.23456 l 2.72403,6.00312 c 0,0 -0.20624,0.61904 0.52752,2.35535 0.73376,1.73632 1.01352,2.47211 1.71052,3.53102 0.69701,1.0589 1.38925,0.55662 2.43476,2.14497 1.04552,1.58834 0.62826,1.26524 1.18778,2.73683 0.5595,1.47159 1.46751,3.47263 1.46751,3.47263 0,0 1.46276,1.91145 2.29726,2.55766 0.83451,0.64622 2.88402,1.58431 2.88402,1.58431 0,0 0.76099,-0.70862 1.60026,1.49876 0.83925,2.20739 1.25175,0.96932 1.78402,4.88585 0.53228,3.91654 0.66978,3.50385 -0.11845,6.65742 -0.78824,3.15356 -0.54999,1.65076 -1.26948,4.59799 -0.71948,2.94722 -1.51722,2.97844 -1.58122,4.74596 -0.064,1.76753 -0.12797,3.53506 0.0143,4.68355 0.14226,1.14849 -0.27347,4.16868 0.0798,6.25931"
       id="path4236-7"
       inkscape:connector-curvature="0"
       sodipodi:nodetypes="ccccccsscscsssscscssssssc" />
    <path
       style="display:inline;fill:none;fill-rule:evenodd;stroke:#ff0000;stroke-width:1.29999995;stroke-linecap:round;stroke-linejoin:round;stroke-miterlimit:4;stroke-dasharray:none;stroke-opacity:1"
       d="m 216.96273,532.47581 c 0.0569,-1.28644 -0.44963,-7.44416 -1.49857,-10.11761 -1.04895,-2.67342 -3.56082,-4.17863 -3.9585,-5.777 -0.39767,-1.59834 1.17081,-0.69186 0.32478,-2.861 -0.84605,-2.16913 -2.40226,-3.97307 -3.95849,-5.77699 -1.55623,-1.80393 -1.50312,-9.73361 -1.50312,-9.73361 0,0 -1.19291,-4.41536 -1.26999,-4.91453 -0.077,-0.49916 -0.0972,-2.28474 -1.15435,-4.16574 -1.0571,-1.88103 -1.13416,-2.3802 -1.98019,-4.54934 -0.84605,-2.16912 -0.90667,-7.52592 -0.90667,-7.52592 0,0 1.03686,0.0954 0.65145,-2.40039 l -0.69375,-4.49242 c -0.23125,-1.49748 -0.36521,-0.71021 -0.84606,-2.16914 -0.48081,-1.45893 -0.73039,-1.42039 -1.03873,-3.41703 -0.30833,-1.99664 -0.50103,-3.24454 -1.13603,-5.7018 -0.635,-2.45725 -1.07915,-6.98822 -1.07915,-6.98822 0,0 0.24959,-0.0386 0.2679,-1.57457 0.0183,-1.53601 -0.11568,-0.74873 -0.21293,-3.0335 -0.0972,-2.28476 -0.0404,-3.57119 -0.48271,-4.78057 -0.44229,-1.20934 -0.15413,-0.99831 -1.17269,-2.62975 -1.01854,-1.63142 -0.97999,-1.38185 -1.53791,-3.33995 -0.55791,-1.95808 -1.19101,-1.09372 -0.78916,-3.45556 0.40188,-2.36185 0.74687,-3.43725 0.36149,-5.93304 -0.38541,-2.4958 -0.2515,-3.28308 -0.44418,-4.53098 -0.1927,-1.24791 0.13398,-0.78729 -0.96164,-2.91788 -1.09562,-2.1306 -1.19103,-1.09373 -1.78747,-3.30141 -0.59647,-2.20768 -0.34687,-2.24622 -0.82771,-3.70516 -0.48082,-1.45895 -1.72873,-1.26623 -0.57813,-3.74369 1.15061,-2.47748 1.66998,-0.76896 1.70664,-3.841 0.0367,-3.07203 0.0752,-2.82245 -0.52125,-5.03014 -0.59645,-2.20767 -1.03874,-3.41702 -0.94331,-4.45389 0.0954,-1.03686 -1.07917,-6.98822 -1.07917,-6.98822 0,0 -1.0975,-5.45222 -1.32875,-6.9497 -0.23125,-1.49747 -1.83854,-6.75521 -1.83854,-6.75521"
       id="path4238-5"
       inkscape:connector-curvature="0"
       sodipodi:nodetypes="czzsscssscssssscssssssssssssssscsc" />
    <path
       style="display:inline;fill:none;fill-rule:evenodd;stroke:#ff0000;stroke-width:0.80000001;stroke-linecap:round;stroke-linejoin:round;stroke-miterlimit:4;stroke-dasharray:none;stroke-opacity:1"
       d="m 126.90273,232.43791 2.02031,4.04061 4.54569,3.28299 4.29314,3.53553 5.30331,1.51523 3.53553,3.53554 3.28299,3.53553 c 0,0 4.54569,2.02031 4.79823,3.283 0.25254,1.26269 0.75761,4.79822 2.0203,4.79822 1.2627,0 3.03046,-1.01015 3.283,0.50508 0.25254,1.51523 2.02031,4.54568 2.52538,6.06091 0.50508,1.51523 4.79823,6.566 4.79823,6.566 0,0 1.76776,2.27284 2.77792,4.29314 1.01015,2.02031 3.03045,4.79823 4.04061,6.31346 1.01015,1.51523 2.27284,4.54568 2.27284,6.06091 0,1.51523 0.25254,3.53554 0.50508,5.80838 0.25253,2.27284 1.26269,4.79822 2.0203,6.06091 0.75761,1.26269 0.25254,1.26269 0.50508,3.78807 0.25253,2.52539 0.75761,4.54569 1.76776,6.566 1.01016,2.0203 1.76777,3.78807 2.02031,4.79822 0.25254,1.01015 0.75761,4.04061 0.75761,4.04061 l 0.75762,4.29315"
       id="path4308"
       inkscape:connector-curvature="0" />
    <path
       style="display:inline;fill:none;fill-rule:evenodd;stroke:#ff0000;stroke-width:0.80000001;stroke-linecap:round;stroke-linejoin:round;stroke-miterlimit:4;stroke-dasharray:none;stroke-opacity:1"
       d="m 102.154,257.18664 0.75761,-5.55584 1.51523,-4.29314 3.03046,-4.79823 2.52538,-3.78807 5.80838,-2.77792 6.06091,2.77792 4.04061,0 6.81853,2.77792 11.36422,4.04061 1.26269,5.55584 5.55584,5.55584 c 0,0 1.76776,4.29314 2.52538,5.55584 0.75761,1.26269 6.81853,7.82868 6.81853,7.82868 l 1.51523,4.54568 0.25254,2.77792 -1.2627,4.04061 2.02031,0.25254 0.75761,1.76777 0.50508,2.0203 3.78807,1.01016 1.26269,0.75761 -2.52538,2.52538 2.02031,1.51523 2.77792,1.26269 2.77792,2.77792 c 0,0 0.25253,2.52538 1.26269,3.53553 1.01015,1.01016 2.52538,3.03046 2.52538,3.03046 l 0.25254,3.78807 1.01015,1.26269"
       id="path4310"
       inkscape:connector-curvature="0" />
    <path
       style="display:inline;fill:none;fill-rule:evenodd;stroke:#ff0000;stroke-width:1px;stroke-linecap:round;stroke-linejoin:round;stroke-opacity:1"
       d="m 151.39893,231.93283 -0.50507,4.54569 4.04061,5.3033 3.03046,5.3033 3.28299,2.0203 4.54569,0.75762 2.0203,2.0203 4.04061,0.25254 5.05077,1.26269 0.75761,1.76777 3.78807,2.77792 3.03046,1.01015 c 0,0 -1.51523,2.0203 -0.75761,3.03046 0.75761,1.01015 2.77791,2.77792 2.77791,2.77792 0,0 -1.26269,1.76776 -1.26269,2.77792 0,1.01015 0.50508,5.05076 0.50508,5.05076 l -2.77792,2.0203 -0.50508,5.3033 -1.01015,3.53554 -0.25254,4.29315 -1.26269,2.27284 -1.26269,5.3033 0.75762,2.77792 0.75761,3.78807 -0.25254,2.02031 -0.25254,3.03045"
       id="path4312"
       inkscape:connector-curvature="0" />
    <path
       style="display:inline;fill:none;fill-rule:evenodd;stroke:#ff0000;stroke-width:1;stroke-linecap:round;stroke-linejoin:round;stroke-miterlimit:4;stroke-dasharray:none;stroke-opacity:1"
       d="m 184.73397,374.86941 -2.27285,-8.5863 1.01016,-7.57614 -0.50508,-7.07107 0.75762,-6.56599 1.26269,-3.78807 -0.25254,-6.31345 0.25254,-5.55584 -0.25254,-4.79823"
       id="path4314"
       inkscape:connector-curvature="0" />
    <path
       style="display:inline;fill:none;fill-rule:evenodd;stroke:#ff0000;stroke-width:1.23000002;stroke-linecap:round;stroke-linejoin:round;stroke-miterlimit:4;stroke-dasharray:none;stroke-opacity:1"
       d="m 200.9103,469.08773 5.35714,-3.57143 1.42857,-10.35714 0,-22.5 -2.5,-10 0,-8.92857 -1.42857,-16.07143 0.71429,-9.28572 0,-10.35714 0.71428,-9.28571 -1.78571,-7.85715 0.71429,-6.78571 -0.71429,-8.57143"
       id="path4316"
       inkscape:connector-curvature="0" />
    <path
       style="display:inline;fill:none;fill-rule:evenodd;stroke:#ff0000;stroke-width:0.85000002;stroke-linecap:round;stroke-linejoin:round;stroke-miterlimit:4;stroke-dasharray:none;stroke-opacity:1"
       d="m 203.32102,345.33772 -4.55358,-5.89285 0,-2.85714 0.35715,-3.57143 -2.14285,-1.42857 0.53571,-2.85714 -1.07143,-1.96429 1.07143,-4.46429 -0.17857,-3.92857 -1.60714,-3.92857 -2.67857,-4.46428 -2.32143,-3.75 -1.42857,-2.67858 -1.96429,-2.14285 1.25,-3.57143 -2.67857,-1.96429 -1.96429,-2.49999 0.17858,-2.67858 -3.39286,-2.5 -1.78572,-6.07142 0,-3.57143 0,-5 -0.17857,-12.32143 -1.07143,-6.60714 1.25,-3.75 -1.78571,-3.39286"
       id="path4318"
       inkscape:connector-curvature="0"
       sodipodi:nodetypes="cccccccccccccccccccccccccc" />
    <path
       style="display:inline;fill:none;fill-rule:evenodd;stroke:#ff0000;stroke-width:0.85000002;stroke-linecap:round;stroke-linejoin:round;stroke-miterlimit:4;stroke-dasharray:none;stroke-opacity:1"
       d="m 194.83888,313.0163 1.78572,-3.21429 -0.35715,-2.5 2.32142,-3.21428 0.89286,-3.21429 2.14286,-1.78571 0,-2.32143 1.07142,-2.14286 0.35715,-5.17857 -0.71429,-3.03571 1.78572,-2.85714 0.53571,-3.03572 1.42857,-8.03571 -2.14286,-5.17857 -0.53571,-3.92857 -2.5,-5.17858 0.17857,-4.64285 -1.07143,-2.85715 -1.78571,-4.64285 -1.96428,-3.39286 -5,-3.92857"
       id="path4320"
       inkscape:connector-curvature="0" />
    <path
       style="display:inline;fill:none;fill-rule:evenodd;stroke:#ff0000;stroke-width:0.85000002;stroke-linecap:round;stroke-linejoin:round;stroke-miterlimit:4;stroke-dasharray:none;stroke-opacity:1"
       d="m 235.61629,333.65848 0.47258,-5.46361 -1.07143,-4.64286 0.71429,-1.42857 1.96428,-3.39285 -0.35714,-3.39286 0.71429,-3.39286 -1.07143,-3.92857 0.53571,-3.03571 1.25,-5 -0.71428,-4.46429 0.53571,-3.75 0.53572,-4.46428 -0.53572,-3.39286 c 0,0 0.53572,-4.10714 0.53572,-4.82143 0,-0.71428 -0.17858,-4.28571 -0.17858,-4.28571 0,0 -0.71428,-2.85715 -0.89285,-3.92857 -0.17857,-1.07143 -2.32143,-3.57143 -2.85715,-4.46429 -0.53571,-0.89286 -1.60714,-5.17857 -1.60714,-5.17857 l 0.17857,-3.75 0.71429,-2.85714 3.03571,-4.10715 1.78572,-1.96428 2.14285,-3.92857"
       id="path4322"
       inkscape:connector-curvature="0"
       sodipodi:nodetypes="ccccccccccccccscsscccccc" />
    <path
       style="display:inline;fill:none;fill-rule:evenodd;stroke:#ff0000;stroke-width:0.85000002;stroke-linecap:round;stroke-linejoin:round;stroke-miterlimit:4;stroke-dasharray:none;stroke-opacity:1"
       d="m 264.6603,265.5163 -0.35714,4.64286 0,2.67857 -1.42857,3.75 c 0,0 0.17857,1.42857 0.17857,2.5 0,1.07143 -2.14286,2.14286 -2.32143,2.85714 -0.17857,0.71429 -0.89286,3.21429 -0.35714,4.10715 0.53571,0.89285 1.07142,3.21428 0.35714,3.92857 -0.71429,0.71428 -3.03572,2.67857 -3.03572,3.57142 0,0.89286 -2.5,2.85715 -3.21428,3.75 -0.71429,0.89286 -1.25,3.21429 -1.07143,4.10715 0.17857,0.89285 -0.17857,3.39285 0,4.64285 0.17857,1.25 -0.71429,3.21429 -1.07143,4.46429 -0.35714,1.25 -2.67857,3.57143 -2.85714,5 -0.17857,1.42857 -0.53572,3.75 -0.71429,4.82143 -0.17857,1.07143 -1.07143,2.67857 -1.07143,2.67857"
       id="path4324"
       inkscape:connector-curvature="0" />
    <path
       style="display:inline;fill:none;fill-rule:evenodd;stroke:#ff0000;stroke-width:0.85000002;stroke-linecap:round;stroke-linejoin:round;stroke-miterlimit:4;stroke-dasharray:none;stroke-opacity:1"
       d="m 230.29165,341.15848 -0.80992,-4.74932 -0.89286,-3.75 -1.42857,-2.67857 0.53571,-5.53572 -1.60714,-2.85714 -0.71428,-2.32143 -1.42858,-3.03571 c 0,0 -1.25,-3.39286 -1.07142,-4.10715 0.17857,-0.71428 -1.42858,-3.03571 -1.42858,-3.03571 0,0 -1.07142,-0.89286 -0.89285,-1.60714 0.17857,-0.71429 0.35714,-1.60715 -0.71429,-1.96429 -1.07143,-0.35714 -3.57143,-1.96429 -3.57143,-1.96429 0,0 -0.35714,-2.32142 -0.53571,-3.03571 -0.17857,-0.71429 0,-4.46429 0,-4.46429 0,0 -4.28572,-2.14285 -4.28572,-2.85714 0,-0.71428 -3.57142,-4.10714 -3.57142,-4.10714 l -2.32143,-2.67857 c 0,0 -0.89286,-0.89286 -1.42857,-1.96429 -0.53572,-1.07142 -3.75,-4.46428 -3.75,-4.46428 l -0.17858,-1.78572 -1.78571,-4.28571 1.25,-2.32143 -0.35714,-2.5"
       id="path4326"
       inkscape:connector-curvature="0"
       sodipodi:nodetypes="ccccccccscsscscsccsccccc" />
    <path
       style="display:inline;fill:none;fill-rule:evenodd;stroke:#ff0000;stroke-width:0.85000002;stroke-linecap:round;stroke-linejoin:round;stroke-miterlimit:4;stroke-dasharray:none;stroke-opacity:1"
       d="m 238.76744,298.10559 1.33929,-0.44643 1.96428,-1.60715 2.14286,-0.89285 2.41072,-1.42857 0.53571,-1.60715 2.85714,-1.07142 1.25,-2.23215 c 0,0 0.26786,-1.16071 0,-1.875 -0.26785,-0.71428 -0.35714,-1.78571 -0.35714,-1.78571 l 1.60714,-1.69643 c 0,0 -0.17857,-0.53571 0,-1.51786 0.17858,-0.98214 0.625,-3.03571 0.625,-3.03571 0,0 -0.80357,-1.16072 -0.98214,-1.60714 -0.17857,-0.44643 0.80357,-2.94643 0.80357,-2.94643 l -1.07143,-2.32143"
       id="path4328"
       inkscape:connector-curvature="0" />
    <path
       style="display:inline;fill:none;fill-rule:evenodd;stroke:#ff0000;stroke-width:0.85000002;stroke-linecap:round;stroke-linejoin:round;stroke-miterlimit:4;stroke-dasharray:none;stroke-opacity:1"
       d="m 229.30694,305.9265 0.37881,-1.6415 -0.75762,-1.76777 -1.13642,-4.54568 0.50508,-1.76777 -1.38896,-1.89403 c 0,0 -2.27285,-2.65165 -2.52538,-3.15673 -0.25254,-0.50507 0.25253,-1.51523 -0.75762,-2.77792 -1.01015,-1.26269 -2.0203,-3.15672 -2.0203,-3.15672 0,0 0.12626,-3.53554 0,-4.04062 -0.12627,-0.50507 -0.63135,-1.64149 -1.13643,-2.52538 -0.50507,-0.88388 -1.64149,-2.90419 -1.64149,-2.90419 0,0 -0.50508,-2.0203 -0.25254,-2.90418 0.25254,-0.88389 2.14657,-1.89404 0.12627,-3.66181 -2.02031,-1.76776 -2.65165,-2.14657 -3.15673,-2.65165 -0.50508,-0.50507 -1.38896,-4.04061 -1.13642,-4.92449 0.25254,-0.88388 0.37881,-4.29315 0.37881,-4.29315 0,0 0.12627,-0.75761 -0.37881,-1.38896 -0.50508,-0.63134 -2.14658,-4.04061 -2.14658,-4.04061 l -0.88388,-3.6618 0,-2.77792"
       id="path4330"
       inkscape:connector-curvature="0" />
    <path
       style="display:inline;fill:none;fill-rule:evenodd;stroke:#ff0000;stroke-width:0.85000002;stroke-linecap:round;stroke-linejoin:round;stroke-miterlimit:4;stroke-dasharray:none;stroke-opacity:1"
       d="m 215.03853,295.44617 c 0,0 2.27285,-4.67196 2.02031,-5.17703 -0.25254,-0.50508 -1.38896,-3.53554 -1.13642,-4.29315 0.25254,-0.75761 1.26269,-2.39911 2.27284,-3.283 1.01015,-0.88388 2.65165,-4.54568 2.65165,-4.54568 l 0.88388,-3.91434 c 0,0 1.76777,-0.50508 2.27285,-1.51523 0.50507,-1.01016 0.75761,-4.29315 0.75761,-4.29315 l 1.76777,-4.16688"
       id="path4332"
       inkscape:connector-curvature="0" />
    <path
       style="display:inline;fill:none;fill-rule:evenodd;stroke:#ff0000;stroke-width:0.85000002;stroke-linecap:round;stroke-linejoin:round;stroke-miterlimit:4;stroke-dasharray:none;stroke-opacity:1"
       d="m 220.84691,246.3275 2.52538,2.27285 0.25254,1.26269 2.27284,3.15672 c 0,0 -0.63134,2.27285 0,2.65165 0.63135,0.37881 2.39912,1.26269 2.39912,1.26269 0,0 0.50507,2.39912 1.13642,2.65165 0.63134,0.25254 3.28299,1.89404 3.28299,1.89404 l 1.51523,1.89404"
       id="path4334"
       inkscape:connector-curvature="0" />
    <path
       style="display:inline;fill:none;fill-rule:evenodd;stroke:#ff0000;stroke-width:0.85000002;stroke-linecap:round;stroke-linejoin:round;stroke-miterlimit:4;stroke-dasharray:none;stroke-opacity:1"
       d="m 266.17751,307.44173 3.53553,-3.40927 3.40927,-3.53553 c 0,0 1.01015,-2.90419 1.01015,-3.78807 0,-0.88389 1.01015,-3.6618 1.01015,-3.6618 l 2.65165,-2.39911 0.37881,-3.283 2.65165,-1.26269 c 0,0 1.26269,-1.76777 1.76777,-1.51523 0.50507,0.25254 0.63134,3.283 0.63134,3.283 l 0.37881,0.88388 c 0,0 1.6415,0.75761 2.27284,0.75761 0.63135,0 1.26269,-0.25253 1.26269,-0.25253"
       id="path4336"
       inkscape:connector-curvature="0" />
    <path
       style="display:inline;fill:none;fill-rule:evenodd;stroke:#ff0000;stroke-width:1.20000005;stroke-linecap:round;stroke-linejoin:round;stroke-miterlimit:4;stroke-dasharray:none;stroke-opacity:1"
       d="m 235.9103,754.53416 c 0,0 -1.96429,1.16071 -2.85714,1.16071 -0.89286,0 -3.39286,0.71429 -3.39286,0.71429 l -2.5,0.89286 c 0,0 -2.67857,0.44643 -3.92857,0.98214 -1.25,0.53571 -2.67857,1.33928 -2.67857,1.33928 0,0 0.53571,0.17858 -0.89286,1.07143 -1.42857,0.89286 -3.57143,2.32143 -4.46429,3.03572 -0.89285,0.71428 -1.60714,0.53571 -2.67857,1.96428 -1.07143,1.42857 -1.60714,2.32143 -1.78571,3.03572 -0.17857,0.71428 0.17857,0.89285 -0.53572,1.60714 -0.71428,0.71429 -0.35714,0.89286 -2.67857,1.60714 -2.32143,0.71429 -4.28571,0.89286 -4.28571,0.89286 0,0 -3.03572,0.53571 -3.75,1.25 -0.71429,0.71429 -1.42856,1.42857 -2.14285,1.96429 -0.71428,0.53571 -2.5,1.07142 -4.10714,1.42857 -1.60714,0.35714 -0.71429,-0.53572 -3.03572,0.71428 -2.32142,1.25 -3.03571,1.78572 -3.75,2.32143 -0.71428,0.53572 -1.42857,2.14286 -2.32142,2.32143 -0.89286,0.17857 -1.60715,0 -2.67858,0.17857 -1.07142,0.17857 -3.57142,1.07143 -3.57142,1.07143 0,0 -2.67858,-1.42857 -3.92858,-1.42857 -1.25,0 -3.75,0.71428 -3.75,0.71428 0,0 -1.60714,1.42858 -2.85714,1.42858 -1.25,0 -0.17857,-1.07143 -2.85714,0 -2.67857,1.07142 -3.75,1.78571 -3.75,1.78571 0,0 -2.32143,2.67857 -3.21429,4.46429 -0.89285,1.78571 -0.35714,0.71428 -0.71428,2.85714 -0.35715,2.14286 -1.25,4.46428 -1.25,4.46428"
       id="path4372"
       inkscape:connector-curvature="0"
       sodipodi:nodetypes="csccscsssssscsssscsscscsscssc" />
    <path
       style="display:inline;fill:none;fill-rule:evenodd;stroke:#ff0000;stroke-width:1px;stroke-linecap:round;stroke-linejoin:round;stroke-opacity:1"
       d="m 235.9103,755.69487 -5.35714,1.25 -1.96429,0.89286 -2.5,0.17857 -2.67857,0.89286 -2.85714,1.42857 -1.60715,1.78571 -1.96428,1.42858 -2.14286,1.42857 -1.25,0.89285 -1.60714,1.60715 -0.71429,1.78571 -3.03571,2.67857 -3.57143,1.60715 c 0,0 -1.60714,0.17857 -2.32143,0.35714 -0.71428,0.17857 -3.21428,0.89286 -3.21428,0.89286 0,0 -1.24999,1.42857 -1.96428,1.78571 -0.71429,0.35714 -4.64285,0.98214 -4.64285,0.98214"
       id="path4374"
       inkscape:connector-curvature="0"
       sodipodi:nodetypes="ccccccccccccccscsc" />
    <path
       style="display:inline;fill:none;fill-rule:evenodd;stroke:#ff0000;stroke-width:1px;stroke-linecap:round;stroke-linejoin:round;stroke-opacity:1"
       d="m 233.50445,738.04989 -3.31363,-0.53571 -4.04061,0 c 0,0 -0.75761,-0.25254 -2.77792,1.26269 -2.0203,1.51523 -4.79822,3.28299 -4.79822,3.28299 l -4.79823,4.29315 -4.54568,3.03046 -5.55584,2.77792 c 0,0 0.25254,1.76776 -2.52538,2.27284 -2.77792,0.50508 -5.55583,0.50508 -5.55583,0.50508 l -4.04061,-0.50508 -4.79823,-2.0203 c 0,0 -3.03045,-1.26269 -4.04061,-1.51523 -1.01015,-0.25254 -4.29315,-1.51523 -5.55584,-2.27285 -1.26269,-0.75761 -4.79822,-4.29314 -4.79822,-4.29314 l -1.76777,-2.77792 -2.0203,-3.283"
       id="path4376"
       inkscape:connector-curvature="0"
       sodipodi:nodetypes="cccsccccscccssccc" />
    <path
       style="display:inline;fill:none;fill-rule:evenodd;stroke:#ff0000;stroke-width:1px;stroke-linecap:round;stroke-linejoin:round;stroke-opacity:1"
       d="m 234.30316,737.56987 -1.16072,-0.44643 -2.41071,-0.35714 -4.01786,0.0893 -1.60714,0 -2.94643,1.51785 -2.5,2.32143 -3.03571,2.14286 -1.78572,1.875 -2.5,1.69643 -2.05357,1.33928 -2.85714,2.14286 -3.03572,1.42857 -0.80357,0.71429"
       id="path4378"
       inkscape:connector-curvature="0" />
    <path
       style="display:inline;fill:none;fill-rule:evenodd;stroke:#ff0000;stroke-width:1px;stroke-linecap:round;stroke-linejoin:round;stroke-opacity:1"
       d="m 234.83887,756.40916 -3.75,1.78571 c 0,0 -1.60714,0.35715 -1.96428,1.60715 -0.35715,1.25 -0.71429,3.03571 -0.71429,3.03571 l -0.53571,3.39286 -1.60715,2.5 c 0,0 -2.14285,1.42857 -2.85714,2.32143 -0.71429,0.89285 -1.42857,2.32142 -1.78571,3.03571 -0.35715,0.71429 -1.25,1.78571 -1.25,3.21429 0,1.42857 0,1.96428 -0.35715,3.39285 -0.35714,1.42857 -0.17857,3.57143 -0.53571,4.28572 -0.35714,0.71428 -1.42857,1.25 -2.32143,1.96428 -0.89286,0.71429 -3.39286,1.42857 -4.64286,2.67857 -1.25,1.25 -1.25,0 -1.78571,1.78572 -0.53572,1.78571 -0.17857,2.67857 -0.53572,4.10714 -0.35714,1.42857 -0.89285,1.78572 -1.42857,2.67857 -0.53571,0.89286 -0.89285,0.35715 -1.42857,1.96429 -0.53571,1.60714 -1.07143,1.96428 -0.53571,3.75 0.53571,1.78571 1.07143,5.89286 1.07143,5.89286 0,0 0.53571,0 -0.53572,1.42857 -1.07143,1.42857 0.17857,-0.17857 -1.60714,2.14285"
       id="path4380"
       inkscape:connector-curvature="0" />
    <path
       style="display:inline;fill:none;fill-rule:evenodd;stroke:#ff0000;stroke-width:1px;stroke-linecap:round;stroke-linejoin:round;stroke-opacity:1"
       d="m 235.92523,756.27597 -2.52538,1.26269 -2.90419,1.38896 -0.75761,0.88388 -0.50508,2.52538 -1.01015,3.6618 -0.75762,2.02031 -1.51523,1.13642 -2.27284,2.65165 -1.01015,1.76777 -1.13642,1.6415 -1.13642,2.14657 c 0,0 -0.25254,1.6415 -0.12627,2.27284 0.12627,0.63135 -0.12627,2.27285 -0.12627,3.03046 0,0.75762 -0.25254,2.02031 -0.25254,2.02031"
       id="path4382"
       inkscape:connector-curvature="0" />
    <path
       style="display:inline;fill:none;fill-rule:evenodd;stroke:#ff0000;stroke-width:1px;stroke-linecap:round;stroke-linejoin:round;stroke-opacity:1"
       d="m 244.71177,753.55034 4.92449,2.14658 2.52538,2.02031 c 0,0 3.03046,-0.75762 3.53553,0.75761 0.50508,1.51523 -0.75761,3.283 1.01016,4.54569 1.76776,1.26269 4.29314,2.0203 4.54568,3.03046 0.25254,1.01015 1.76777,4.54568 1.51523,6.31345 -0.25254,1.76777 0,4.04061 -0.25254,5.05076 -0.25253,1.01015 -0.88388,5.42957 -0.12627,6.43973 0.75762,1.01015 3.03046,3.28299 3.03046,4.29314 0,1.01016 1.89404,3.40927 2.14658,4.41942 0.25253,1.01015 -1.26269,1.76777 0.50507,3.283 1.76777,1.51522 3.03046,2.27284 3.03046,2.27284 l 1.76777,1.51523"
       id="path4384"
       inkscape:connector-curvature="0"
       sodipodi:nodetypes="cccssssssssscc" />
    <path
       style="display:inline;fill:none;fill-rule:evenodd;stroke:#ff0000;stroke-width:1px;stroke-linecap:round;stroke-linejoin:round;stroke-opacity:1"
       d="m 243.82788,754.18169 3.78807,1.38896 1.38896,0.88389 2.39912,1.64149 0.88388,0.25254 2.0203,0 0.63135,-0.12627 0.37881,0.63135 -0.37881,1.26269 0.25254,1.6415 1.01015,1.38896 1.26269,1.13642 1.38896,0.75761 2.02031,1.38896 c 0,0 0,0.88389 0.25253,1.38896 0.25254,0.50508 1.13643,3.6618 1.13643,3.6618 l -0.12627,3.283 0,3.91434 -0.25254,4.04061 1.26269,2.39911"
       id="path4386"
       inkscape:connector-curvature="0"
       sodipodi:nodetypes="ccccccccccccccsccccc" />
    <path
       style="display:inline;fill:none;fill-rule:evenodd;stroke:#ff0000;stroke-width:1px;stroke-linecap:round;stroke-linejoin:round;stroke-opacity:1"
       d="m 241.44602,737.12345 4.82142,-1.25001 1.07143,-2.85714 2.5,0.71429 4.64286,-2.85715 3.92857,-0.35714 c 0,0 1.07143,-0.71428 3.21429,-0.71428 2.14285,0 7.14285,-1.07143 8.92857,-0.71429 1.78571,0.35714 6.42857,-2.14286 6.42857,-2.14286 l 5.35714,-4.28571 c 0,0 2.14286,-2.14286 5,-2.14286 2.85714,0 5,-0.35714 5,-0.35714 l 3.57143,-2.14286"
       id="path4388"
       inkscape:connector-curvature="0"
       sodipodi:nodetypes="ccccccssccscc" />
    <path
       style="display:inline;fill:none;fill-rule:evenodd;stroke:#ff0000;stroke-width:1px;stroke-linecap:round;stroke-linejoin:round;stroke-opacity:1"
       d="m 242.47597,737.60686 3.79147,-1.01913 0.93433,-0.54654 0.43111,-2.37373 1.84885,0.59884 2.67857,-1.42857 3.57143,-1.78571 3.21428,-0.17858 3.92858,-0.71428 3.75,-0.17857 2.85714,-0.17857 1.96428,-0.89286"
       id="path4390"
       inkscape:connector-curvature="0"
       sodipodi:nodetypes="cccccccccccc" />
    <path
       style="display:inline;fill:none;fill-rule:evenodd;stroke:#ff0000;stroke-width:1px;stroke-linecap:round;stroke-linejoin:round;stroke-opacity:1"
       d="m 237.26189,734.23118 -3.53553,-0.50508 c 0,0 -1.76777,0.25254 -3.78808,0 -2.0203,-0.25253 -4.04061,-2.0203 -5.05076,-2.0203 -1.01015,0 -3.28299,-2.02031 -4.29315,-2.02031 -1.01015,0 -3.53553,-0.50507 -5.80837,-0.50507 -2.27285,0 -4.54569,0.25254 -6.31346,-0.50508 -1.76776,-0.75761 -2.27284,-2.27284 -4.79822,-2.77792 -2.52538,-0.50507 -2.52538,-0.50507 -6.06091,-0.75761 -3.53553,-0.25254 -4.29315,0.50507 -6.31345,-0.25254 -2.02031,-0.75762 -2.52538,-2.77792 -5.80838,-2.27284 -3.28299,0.50507 -3.53553,0.75761 -5.55584,1.76776 -2.0203,1.01016 -3.53553,3.03046 -5.55584,2.02031 -2.0203,-1.01015 -2.77792,-2.02031 -3.78807,-2.02031 -1.01015,0 -3.03046,-0.25254 -3.03046,-0.25254"
       id="path4392"
       inkscape:connector-curvature="0" />
    <path
       style="display:inline;fill:none;fill-rule:evenodd;stroke:#ff0000;stroke-width:1px;stroke-linecap:round;stroke-linejoin:round;stroke-opacity:1"
       d="m 237.26189,734.98879 -3.40926,-0.63134 c 0,0 -2.14658,0.25254 -2.65165,0.37881 -0.50508,0.12627 -3.15673,-0.75762 -3.15673,-0.75762 l -3.15673,-1.76777 -4.16688,-2.0203 -4.92449,-0.25254 -3.91434,0 -3.78807,-0.50507 -3.53554,-2.90419"
       id="path4394"
       inkscape:connector-curvature="0"
       sodipodi:nodetypes="ccsccccccc" />
    <path
       style="display:inline;fill:none;fill-rule:evenodd;stroke:#ff0000;stroke-width:1px;stroke-linecap:round;stroke-linejoin:round;stroke-opacity:1"
       d="m 240.16608,723.75085 c 0,0 1.26269,-1.38896 2.14657,-1.38896 0.88389,0 2.39912,0 3.283,-0.50508 0.88388,-0.50508 4.29315,-3.03046 4.29315,-3.03046 0,0 0.75761,0.25254 2.52538,0.25254 1.76777,0 2.90419,-0.25254 3.53553,0 0.63135,0.25254 2.02031,0.88388 2.02031,0.88388 l 2.77792,-0.3788 c 0,0 0.88388,-0.25254 1.76776,0.12627 0.88389,0.3788 0.88389,0.63134 1.76777,0.88388 0.88388,0.25254 4.29315,-0.75761 4.29315,-0.75761 l 3.53553,-0.12627 c 0,0 2.14658,-0.12627 3.283,-0.50508 1.13642,-0.37881 4.16688,-2.27284 4.16688,-2.27284 0,0 4.29315,-1.6415 4.92449,-2.27285 0.63135,-0.63134 1.89404,-3.6618 2.39911,-4.29314 0.50508,-0.63135 2.52539,-2.02031 2.52539,-2.02031"
       id="path4396"
       inkscape:connector-curvature="0" />
    <path
       style="display:inline;fill:none;fill-rule:evenodd;stroke:#ff0000;stroke-width:1px;stroke-linecap:round;stroke-linejoin:round;stroke-opacity:1"
       d="m 239.78727,722.99323 2.27284,-1.51523 3.66181,0.12627 3.78807,-2.65165 6.18718,-0.12627"
       id="path4398"
       inkscape:connector-curvature="0" />
    <path
       style="display:inline;fill:none;fill-rule:evenodd;stroke:#ff0000;stroke-width:1px;stroke-linecap:round;stroke-linejoin:round;stroke-opacity:1"
       d="m 227.66544,681.19817 c -0.75761,-0.50508 -3.53553,-2.27284 -3.53553,-2.27284 0,0 -1.6415,-1.76777 -2.65165,-2.27285 -1.01016,-0.50507 -4.16688,-0.88388 -4.16688,-0.88388 l -2.52538,-2.52538 -3.53554,-3.78807 -4.29315,-1.13642 -2.39911,-2.52539 c 0,0 -3.6618,-4.29314 -4.41942,-4.67195 -0.75761,-0.37881 -3.66179,-0.50508 -4.79821,-0.63135 -1.13642,-0.12627 -4.54569,0.25254 -5.93465,-0.3788 -1.38896,-0.63135 -2.65165,-1.51523 -3.40926,-2.02031 -0.75762,-0.50507 -4.04061,-3.03046 -4.41942,-3.6618 -0.37881,-0.63135 -3.40926,-3.283 -3.40926,-3.283"
       id="path4400"
       inkscape:connector-curvature="0" />
    <path
       style="display:inline;fill:none;fill-rule:evenodd;stroke:#ff0000;stroke-width:1px;stroke-linecap:round;stroke-linejoin:round;stroke-opacity:1"
       d="m 227.66544,680.44056 c -0.63134,-0.37881 -3.6618,-2.27285 -3.6618,-2.27285 l -2.14658,-2.0203 -4.54568,-0.75762 -5.3033,-6.18718 -4.79823,-1.38896 -6.43972,-6.43972"
       id="path4402"
       inkscape:connector-curvature="0" />
    <path
       style="display:inline;fill:none;fill-rule:evenodd;stroke:#ff0000;stroke-width:1px;stroke-linecap:round;stroke-linejoin:round;stroke-opacity:1"
       d="m 242.43893,756.70707 c 1.01015,0.75761 5.17702,3.78808 5.17702,3.78808 l 2.52538,2.0203 c 0,0 2.52539,0.25254 3.53554,0.25254 1.01015,0 6.81853,-2.27284 6.81853,-2.27284 l 3.03046,-3.78808 5.3033,-1.51522 4.79822,-2.27285 4.54569,-0.75761 5.3033,-0.25254 6.31345,-0.25254 3.283,-4.29315 c 0,0 2.77792,0.25254 5.05076,-0.25254 2.27284,-0.50507 2.02031,-1.26269 3.78807,-1.76776 1.76777,-0.50508 6.06092,-0.50508 6.56599,-1.51523 0.50508,-1.01015 -0.50507,-5.05076 0.50508,-5.3033 1.01015,-0.25254 3.283,-1.51523 4.79823,-3.283 1.51522,-1.76776 3.03045,-4.29315 4.04061,-4.79822 1.01015,-0.50508 4.29314,-3.283 6.06091,-3.53554 1.76777,-0.25253 2.02031,1.26269 4.04061,-1.26269 2.02031,-2.52538 3.283,-5.05076 3.283,-5.05076"
       id="path4404"
       inkscape:connector-curvature="0"
       sodipodi:nodetypes="cccsccccccccssssscssc" />
    <path
       style="display:inline;fill:none;fill-rule:evenodd;stroke:#ff0000;stroke-width:1px;stroke-linecap:round;stroke-linejoin:round;stroke-opacity:1"
       d="m 242.43892,755.82319 8.20749,6.06092 3.15673,0.12626 6.06091,-2.14657 3.15673,-3.91434 5.55584,-1.38896 5.05076,-2.52538 5.55584,-0.88389 10.48033,0 3.40927,-3.91434 5.80838,-0.50507 4.16687,-1.6415 5.05077,-1.26269"
       id="path4406"
       inkscape:connector-curvature="0"
       sodipodi:nodetypes="ccccccccccccc" />
    <path
       style="display:inline;fill:none;fill-rule:evenodd;stroke:#ff0000;stroke-width:1px;stroke-linecap:round;stroke-linejoin:round;stroke-opacity:1"
       d="m 225.89767,648.87329 3.78808,-1.01015 3.28299,-1.51523 3.78807,-2.02031 3.78808,0 4.29314,-2.27284"
       id="path4408"
       inkscape:connector-curvature="0" />
    <path
       style="display:inline;fill:none;fill-rule:evenodd;stroke:#ff0000;stroke-width:1px;stroke-linecap:round;stroke-linejoin:round;stroke-opacity:1"
       d="m 225.64514,650.00971 4.54568,-1.6415 6.72159,-3.98196"
       id="path4410"
       inkscape:connector-curvature="0"
       sodipodi:nodetypes="ccc" />
    <path
       style="display:inline;fill:none;fill-rule:evenodd;stroke:#ff0000;stroke-width:1px;stroke-linecap:round;stroke-linejoin:round;stroke-opacity:1"
       d="m 221.73977,638.08812 -9.98423,-1.33666 -3.03046,-3.03046 -6.06091,-0.50507 -9.09137,-7.57615 -4.04061,-5.05076 -3.53553,-3.53554 -18.68782,-4.04061"
       id="path4412"
       inkscape:connector-curvature="0"
       sodipodi:nodetypes="cccccccc" />
    <path
       style="display:inline;fill:none;fill-rule:evenodd;stroke:#ff0000;stroke-width:1px;stroke-linecap:round;stroke-linejoin:round;stroke-opacity:1"
       d="m 239.30316,714.08773 c 0,0 2.32143,-2.14286 3.57143,-2.5 1.25,-0.35714 3.21428,0 3.75,-1.25 0.53571,-1.25 3.92857,-3.39286 4.64285,-4.10714 0.71429,-0.71429 3.39286,-4.10715 3.39286,-4.10715 0,0 -0.71429,-3.75 0.35714,-5.17857 1.07143,-1.42857 4.28572,-2.32143 3.75,-4.28571 -0.53571,-1.96429 -1.96428,-2.85715 -1.07143,-3.75 0.89286,-0.89286 2.67858,-3.03572 4.46429,-4.10715 1.78571,-1.07142 4.28571,-3.75 4.28571,-3.75 0,0 3.57143,1.60715 4.82143,-0.17857 1.25,-1.78571 2.5,-5.17857 2.5,-5.17857 l 3.39286,-3.03571 3.21429,-2.14286"
       id="path4414"
       inkscape:connector-curvature="0" />
    <path
       style="display:inline;fill:none;fill-rule:evenodd;stroke:#ff0000;stroke-width:1px;stroke-linecap:round;stroke-linejoin:round;stroke-opacity:1"
       d="m 239.15593,713.14424 2.77792,-1.95717 2.71478,-0.56821 0.88388,-0.12627 0.88389,-0.75761 1.95717,-1.95717 2.46225,-1.76777 3.21986,-3.72493 0.56825,-4.67196"
       id="path4416"
       inkscape:connector-curvature="0"
       sodipodi:nodetypes="ccccccccc" />
    <path
       style="display:inline;fill:none;fill-rule:evenodd;stroke:#ff0000;stroke-width:1px;stroke-linecap:round;stroke-linejoin:round;stroke-opacity:1"
       d="m 261.25302,759.8638 4.41941,1.76777 c 0,0 2.02031,1.38896 3.53553,1.89403 1.51523,0.50508 3.53554,1.89404 3.53554,1.89404 0,0 0.63134,2.0203 1.13642,2.39911 0.50508,0.37881 4.04061,2.52538 4.79822,2.90419 0.75762,0.37881 2.39912,1.01015 2.77792,2.14657 0.37881,1.13643 1.38896,3.03046 2.14658,3.53554 0.75761,0.50507 2.14657,2.39911 4.67195,2.65165 2.52539,0.25254 3.91434,0 4.54569,0.88388 0.63135,0.88389 1.38896,1.6415 1.89404,2.65165 0.50507,1.01016 1.13642,2.77792 3.6618,3.283 2.52538,0.50507 4.92449,1.13642 5.55584,1.76777 0.63134,0.63134 1.76777,3.15672 2.39911,3.91434 0.63135,0.75761 1.76777,2.0203 4.29315,3.03045 2.52538,1.01016 3.15673,5.05077 3.15673,5.05077"
       id="path4418"
       inkscape:connector-curvature="0"
       sodipodi:nodetypes="ccscsssssscsscsc" />
    <path
       style="display:inline;fill:none;fill-rule:evenodd;stroke:#ff0000;stroke-width:1px;stroke-linecap:round;stroke-linejoin:round;stroke-opacity:1"
       d="m 226.65529,769.58652 3.78807,9.09137 c 0,0 -2.77792,3.283 -2.52538,5.05076 0.25254,1.76777 1.76777,4.29315 2.52538,6.566 0.75761,2.27284 1.26269,4.04061 1.51523,6.56599 0.25254,2.52538 1.01015,4.29315 1.01015,6.56599 0,2.27284 0.75762,3.78807 2.27284,5.3033 1.51523,1.51523 1.51523,1.01015 2.77792,4.04061 1.2627,3.03046 2.77792,3.78807 2.27285,6.31345 -0.50508,2.52539 -0.75762,2.27285 -0.75762,5.3033 0,3.03046 0.50508,2.02031 -0.25253,4.29315 -0.75762,2.27285 -2.02031,3.78808 -3.03046,5.80838 -1.01016,2.02031 -1.51523,2.52538 -1.51523,5.3033 0,2.77792 0,4.04061 1.51523,6.06092 1.51523,2.0203 3.53553,3.28299 3.53553,3.28299"
       id="path4488"
       inkscape:connector-curvature="0" />
    <path
       style="display:inline;fill:none;fill-rule:evenodd;stroke:#ff0000;stroke-width:1px;stroke-linecap:round;stroke-linejoin:round;stroke-opacity:1"
       d="m 215.79615,788.52688 -3.78807,4.54569 -0.75762,4.54568 c 0,0 -0.25254,4.29315 -0.25254,5.55584 0,1.26269 -1.26269,5.80838 -1.26269,7.57615 0,1.76776 1.51523,4.54568 1.01016,6.06091 -0.50508,1.51523 -3.283,2.52538 -4.54569,4.79823 -1.26269,2.27284 -3.283,3.53553 -3.283,7.3236 0,3.78807 0,7.07107 0,9.34391 0,2.27285 1.51523,5.80838 1.51523,8.08122 0,2.27285 0.25254,5.55584 0,7.07107 -0.25254,1.51523 -0.75761,1.01015 -0.75761,3.03046 0,2.0203 1.01015,4.04061 1.01015,4.04061"
       id="path4490"
       inkscape:connector-curvature="0" />
  </g>
  <g
     inkscape:groupmode="layer"
     id="layer2"
     inkscape:label="assone"
     transform="translate(-3.5432955,-196.70125)"
     style="display:inline"
     sodipodi:insensitive="true">
    <path
       style="display:inline;fill:none;fill-rule:evenodd;stroke:#0000ff;stroke-width:1.70000005;stroke-linecap:round;stroke-linejoin:round;stroke-miterlimit:4;stroke-dasharray:none;stroke-opacity:1"
       d="m 250.73174,844.44487 -0.17857,5.35715 0.35714,4.28571 -1.07143,4.64286 -0.35714,3.92857 1.42857,5 -1.42857,5 1.42857,6.78571 -1.07143,4.64286 2.14286,4.28571 0,6.07143 -0.71429,3.92857 c 0,0 0.35715,3.21429 1.42857,5.71429 1.07143,2.5 2.14286,7.85714 2.14286,7.85714 0,0 -0.71428,2.14286 -0.35714,4.28572 0.35714,2.14285 2.14286,6.42857 2.14286,6.42857 0,0 0.35714,3.57143 0,5.35714 -0.35715,1.78572 -1.07143,6.78572 -1.07143,6.78572 l 0.35714,5.71428 c 0,0 1.78571,1.78572 0.71429,3.92857 -1.07143,2.14286 -2.14286,4.64286 -1.07143,7.14286"
       id="path4340"
       inkscape:connector-curvature="0"
       sodipodi:nodetypes="ccccccccccccscscsccsc" />
    <path
       style="display:inline;fill:none;fill-rule:evenodd;stroke:#0000ff;stroke-width:1.39999998;stroke-linecap:round;stroke-linejoin:round;stroke-miterlimit:4;stroke-dasharray:none;stroke-opacity:1"
       d="m 255.55317,952.30201 2.32143,4.28572 1.07142,3.75 c 0,0 0.35715,3.75 0.53572,4.82143 0.17857,1.07143 1.07143,5.53571 1.07143,5.53571 l -0.89286,4.82143 c 0,0 -0.17857,3.39286 -0.17857,5.53572 0,2.14285 0.71428,6.07142 0.53571,8.21428 -0.17857,2.14286 -1.42857,5.53572 -1.42857,5.53572 0,0 -0.53571,2.67857 -0.17857,4.46428 0.35714,1.7857 0.17857,4.6429 1.25,6.0714 1.07143,1.4286 3.57143,4.8215 3.57143,5.8929 0,1.0714 0.17857,3.5714 0.17857,3.5714"
       id="path4342"
       inkscape:connector-curvature="0"
       sodipodi:nodetypes="cccsccsscsssc" />
    <path
       style="display:inline;fill:none;fill-rule:evenodd;stroke:#0000ff;stroke-width:1px;stroke-linecap:round;stroke-linejoin:round;stroke-opacity:1"
       d="m 255.91031,952.65916 -10,2.5 -7.5,1.07143 -4.64286,1.42857 -8.57143,2.85714 -12.85714,3.57143 -6.42857,0 -16.07143,2.5 c 0,0 -6.78571,1.07143 -10,1.07143 -3.21428,0 -6.42857,-0.35714 -8.92857,-0.35714 -2.5,0 -8.57143,1.42857 -10,1.78571 -1.42857,0.35714 -5.71429,2.5 -9.28571,2.85714 -3.57143,0.35715 -11.78572,2.14286 -11.78572,2.14286 0,0 -5.35714,0 -9.28571,0.71429 -3.92857,0.71428 -12.14286,2.5 -12.14286,2.5 0,0 -5,1.42857 -7.5,1.42857 -2.5,0 -6.42857,0.35714 -9.64286,0 -3.21428,-0.35715 -7.85714,-0.71429 -7.85714,-0.71429"
       id="path4344"
       inkscape:connector-curvature="0"
       sodipodi:nodetypes="ccccccccsssscscssc" />
    <path
       style="display:inline;fill:none;fill-rule:evenodd;stroke:#0000ff;stroke-width:1px;stroke-linecap:round;stroke-linejoin:round;stroke-opacity:1"
       d="m 117.33888,962.65916 4.64286,0 c 0,0 7.5,-0.71429 8.92857,-0.71429 1.42857,0 9.28571,-1.78571 10.71429,-1.78571 1.42857,0 11.07142,1.42857 11.07142,1.42857 0,0 7.85715,-2.14286 9.28572,-2.14286 l 10.35714,0 c 0,0 7.85714,0 13.92857,0.35715 6.07143,0.35714 10.35715,0.35714 10.35715,0.35714 0,0 4.28571,0.71428 6.07142,1.07143 1.78572,0.35714 6.07143,0.35714 9.64286,0.71428 3.57143,0.35715 11.78572,-1.42857 11.78572,-1.42857"
       id="path4346"
       inkscape:connector-curvature="0"
       sodipodi:nodetypes="ccsscscscssc" />
    <path
       style="display:inline;fill:none;fill-rule:evenodd;stroke:#0000ff;stroke-width:0.80000001;stroke-linecap:round;stroke-linejoin:round;stroke-miterlimit:4;stroke-dasharray:none;stroke-opacity:1"
       d="m 161.26745,950.87344 1.78572,2.5 1.07143,2.5 2.14285,1.42858 0.71429,1.07142 1.07143,0.35715"
       id="path4348"
       inkscape:connector-curvature="0" />
    <path
       style="display:inline;fill:none;fill-rule:evenodd;stroke:#0000ff;stroke-width:1px;stroke-linecap:round;stroke-linejoin:round;stroke-opacity:1"
       d="m 251.98174,845.5163 6.42857,-1.42857 2.18618,-2.43501 c 0,0 4.24239,0.6493 6.02811,0.29215 1.78571,-0.35714 4.28571,-2.85714 6.42857,-2.85714 l 8.92857,0 5.71428,-3.21429 6.42858,-0.35714 c 0,0 0,-1.42857 3.92857,-1.42857 3.92857,0 0.71428,0.71429 7.14285,0 6.42858,-0.71429 4.64286,0 10,-0.71429 5.35715,-0.71428 7.5,-1.42857 10,-2.14285 2.5,-0.71429 3.57143,-1.07143 6.42858,-1.42857 2.85714,-0.35715 4.64285,-0.71429 7.14285,-1.78572"
       id="path4350"
       inkscape:connector-curvature="0"
       sodipodi:nodetypes="cccsscccsssssc" />
    <path
       style="display:inline;fill:none;fill-rule:evenodd;stroke:#0000ff;stroke-width:1px;stroke-linecap:round;stroke-linejoin:round;stroke-opacity:1"
       d="m 259.99033,841.55989 c 0,0 -0.50507,-4.54569 0.75762,-5.80838 1.26269,-1.26269 3.28299,-3.28299 3.28299,-3.28299 0,0 0,-3.53554 1.01016,-5.05077 1.01015,-1.51523 3.28299,-1.01015 3.53553,-3.78807 0.25254,-2.77792 -2.27284,-6.06091 -1.01015,-8.5863 1.26269,-2.52538 4.79822,-3.28299 4.04061,-5.55584 -0.75762,-2.27284 -2.27285,-2.27284 -0.50508,-4.29314 1.76777,-2.02031 0.25254,-1.76777 3.283,-4.29315 3.03045,-2.52538 3.78807,-1.26269 4.04061,-4.29315 0.25253,-3.03046 -1.26269,-2.52538 0.25253,-4.54569 1.51523,-2.0203 2.52539,-7.3236 2.77792,-9.59645 0.25254,-2.27284 0.25254,-3.03045 0.50508,-4.29314 0.25254,-1.26269 1.26269,-5.05077 1.26269,-5.05077 l -0.75761,-3.78807"
       id="path4356"
       inkscape:connector-curvature="0" />
    <path
       style="display:inline;fill:none;fill-rule:evenodd;stroke:#0000ff;stroke-width:1px;stroke-linecap:round;stroke-linejoin:round;stroke-opacity:1"
       d="m 102.65907,844.33781 c 1.01016,0.25254 4.54569,0.25254 4.54569,0.25254 0,0 -1.26269,-1.01016 1.01015,-2.27285 2.27285,-1.26269 3.78807,-2.27284 3.78807,-2.27284 0,0 0.75762,-1.26269 2.02031,-2.52538 1.26269,-1.26269 1.51523,-2.02031 4.54569,-2.77792 3.03045,-0.75762 3.03045,-1.26269 5.55583,-2.02031 2.52539,-0.75761 2.77792,-1.26269 4.79823,-1.76776 2.0203,-0.50508 2.77792,-1.01016 3.78807,-1.26269 1.01015,-0.25254 1.51523,0 3.283,-1.2627 1.76776,-1.26269 3.28299,-2.77791 3.28299,-2.77791 0,0 2.27285,-1.2627 3.78808,-2.02031 1.51522,-0.75761 -1.51523,-1.01015 1.76776,-1.01015 3.283,0 1.26269,0.25254 4.79823,-0.50508 3.53553,-0.75761 2.0203,0.75762 5.55584,-1.51523 3.53553,-2.27284 5.05076,-3.28299 6.06091,-4.29315 l 1.51523,-1.51522 c 1.01015,-1.01016 0.75761,-2.02031 2.52538,-2.02031 1.76777,0 0.50508,0 3.283,-0.25254 2.77792,-0.25254 3.53553,-0.25254 5.3033,-1.26269 1.76776,-1.01015 2.27284,-1.76777 4.54568,-2.77792 2.27285,-1.01015 3.53554,-2.27284 6.566,-2.27284 3.03045,0 1.76776,-1.01015 6.56599,-1.01015 4.79822,0 5.80837,-2.27285 9.59645,-0.75762 3.78807,1.51523 1.51523,1.01015 5.80837,2.27285 4.29315,1.26269 2.77792,1.51522 8.08122,1.76776 5.3033,0.25254 3.78808,-3.03046 7.82869,0.25254 4.04061,3.283 1.26269,3.78807 5.55584,4.04061 4.29314,0.25254 6.31345,-0.25254 6.31345,-0.25254 0,0 -0.25254,-2.77792 4.79822,-3.78807 5.05077,-1.01015 2.52538,-2.52538 2.52538,-2.52538"
       id="path4358"
       inkscape:connector-curvature="0"
       sodipodi:nodetypes="ccscsssssscssssssssssssssssscsc" />
    <path
       style="display:inline;fill:none;fill-rule:evenodd;stroke:#0000ff;stroke-width:1px;stroke-linecap:round;stroke-linejoin:round;stroke-opacity:1"
       d="m 299.63882,833.98844 c 0.25254,-1.31078 3.03046,-4.981 3.03046,-4.981 l 0.25254,-5.50531 c 0,0 0,-1.83511 0.50507,-2.88374 0.50508,-1.04863 3.03046,-2.35942 2.52538,-4.981 -0.50507,-2.62157 -2.0203,-7.34042 -1.26269,-8.65121 0.75762,-1.31078 3.283,-1.31078 3.283,-3.14589 0,-1.83511 -0.75762,-5.50532 -0.75762,-5.50532 0,0 2.27285,-2.09726 2.27285,-3.40805 0,-1.31079 -0.50508,-1.57294 -0.75762,-3.14589 -0.25254,-1.57295 3.283,-2.88374 2.52538,-5.76747 -0.75761,-2.88374 -3.03045,-6.55396 -3.03045,-6.55396 0,0 1.51523,-0.5243 1.76776,-3.14588 0.25254,-2.62159 -0.25253,-2.35943 0.25254,-4.19453 0.50508,-1.8351 0,-1.8351 1.01015,-2.62158 1.01016,-0.78647 2.02031,-2.09726 2.02031,-2.09726 0,0 0.50508,-2.88374 0,-4.19453 -0.50508,-1.31079 -2.52538,-2.62157 -2.52538,-2.62157 0,0 -0.75762,-0.26216 -0.75762,-1.83511 0,-1.57295 0.75762,-1.57295 0.75762,-3.93237 0,-2.35941 0.25254,-3.6702 0.25254,-3.6702"
       id="path4354"
       inkscape:connector-curvature="0" />
    <path
       style="display:inline;fill:none;fill-rule:evenodd;stroke:#0000ff;stroke-width:1px;stroke-linecap:round;stroke-linejoin:round;stroke-opacity:1"
       d="m 265.0411,841.81323 2.52538,-3.86718 0.25253,-3.35157 c 0,0 3.53554,-0.25782 4.54569,-1.80469 1.01015,-1.54688 2.02031,-3.60937 3.283,-4.64062 1.26269,-1.03126 3.28299,-2.32032 3.53553,-3.35157 0.25254,-1.03125 0.50508,-4.38281 0.50508,-4.38281 0,0 2.0203,-0.51562 2.0203,-1.80468 0,-1.28908 1.26269,-4.12501 1.26269,-5.15626 0,-1.03125 0,-4.125 0,-4.125 l -0.25254,-3.09376 1.01016,-4.125 3.03045,-4.3828 -0.75761,-3.09375 1.51523,-4.64063 c 0,0 -0.50508,-2.32031 -0.50508,-3.35156 0,-1.03126 1.01016,-5.41406 1.01016,-5.41406 l -0.50508,-4.89845 2.0203,-3.09375 0.25254,-2.83594 1.01015,-2.83594"
       id="path4352"
       inkscape:connector-curvature="0" />
    <path
       style="display:inline;fill:none;fill-rule:evenodd;stroke:#0000ff;stroke-width:1.89999998;stroke-linecap:round;stroke-linejoin:round;stroke-miterlimit:4;stroke-dasharray:none;stroke-opacity:1"
       d="m 238.76745,757.30202 -0.35714,4.28571 2.14286,2.14286 0.35714,5.35714 1.42857,8.21429 c 0,0 -0.35714,3.57142 -0.35714,5.35714 0,1.78571 -1.42857,6.78571 -1.42857,6.78571 l 1.42857,8.92857 1.07143,4.64286 -1.07143,7.5 c 0,0 -0.35714,4.28572 0.71428,6.07143 1.07143,1.78571 3.57143,2.14286 3.21429,5 -0.35714,2.85714 -0.35714,7.14286 -0.35714,7.14286 0,0 -1.07143,1.78571 0.71428,4.28571 1.78572,2.5 4.28572,7.5 4.28572,7.5 l 0,3.57143"
       id="path4338"
       inkscape:connector-curvature="0" />
    <path
       style="display:inline;fill:none;fill-rule:evenodd;stroke:#0000ff;stroke-width:1px;stroke-linecap:round;stroke-linejoin:round;stroke-opacity:1"
       d="m 226.40276,799.13348 0,-4.04061 -2.0203,-3.53553 -4.29315,-7.32361 -1.01016,-5.05076 -1.76776,-3.78807 -2.02031,-4.04061 1.51523,-3.78808 -3.78807,-2.27284 -1.51523,-3.53553"
       id="path4422"
       inkscape:connector-curvature="0" />
    <path
       style="display:inline;fill:none;fill-rule:evenodd;stroke:#0000ff;stroke-width:1px;stroke-linecap:round;stroke-linejoin:round;stroke-opacity:1"
       d="m 241.04997,808.72993 -3.03046,-3.03046 -4.29314,-3.28299 -4.54569,-2.02031 -5.3033,-2.52538 -4.79823,-1.76777 c 0,0 -3.28299,-0.75761 -4.54568,-1.51523 -1.26269,-0.75761 -3.78807,-2.77791 -5.55584,-3.28299 -1.76777,-0.50508 -5.3033,-1.51523 -5.3033,-1.51523 0,0 -2.02031,-1.76777 -2.02031,-2.77792 0,-1.01015 0.75762,-4.04061 -0.50507,-5.05076 -1.26269,-1.01015 -3.03046,-2.52538 -3.03046,-2.52538 l 1.26269,-4.04061 -4.79823,-3.78808 -2.27284,-5.3033 -3.28299,-3.03045 c 0,0 -0.50508,-4.04061 -1.51523,-5.05077 -1.01016,-1.01015 -3.03046,-1.76776 -3.283,-3.03045 -0.25254,-1.2627 -0.50507,-3.53554 -0.50507,-5.05077 0,-1.51523 -2.02031,-4.29315 -2.02031,-4.29315 l -1.76777,-4.29314 1.51523,-3.283"
       id="path4420"
       inkscape:connector-curvature="0" />
    <path
       style="display:inline;fill:none;fill-rule:evenodd;stroke:#0000ff;stroke-width:1px;stroke-linecap:round;stroke-linejoin:round;stroke-opacity:1"
       d="m 162.00554,764.78829 8.08122,3.283 2.0203,2.02031 c 0,0 3.03046,0.50507 3.03046,2.0203 0,1.51523 0.50507,4.29315 0.50507,4.29315 0,0 1.2627,-0.25254 1.76777,1.51523 0.50508,1.76776 0,6.31345 0,6.31345 0,0 -0.25254,1.26269 1.51523,3.283 1.76777,2.0203 3.78807,4.79822 6.06092,6.56599 2.27284,1.76777 3.78807,2.52538 4.79822,3.78807 1.01015,1.26269 2.77792,2.02031 4.29315,3.03046 1.51523,1.01015 4.04061,2.0203 4.04061,2.0203 l 0.75761,0.75762"
       id="path4360"
       inkscape:connector-curvature="0" />
    <path
       style="display:inline;fill:none;fill-rule:evenodd;stroke:#0000ff;stroke-width:1px;stroke-linecap:round;stroke-linejoin:round;stroke-opacity:1"
       d="m 240.03982,787.01165 c -1.01015,-1.01015 -2.02031,-3.78807 -3.283,-5.55584 -1.26269,-1.76777 -3.53553,-5.05076 -3.53553,-5.05076 0,0 -1.76777,-4.04061 -2.02031,-5.55584 -0.25253,-1.51523 -0.50507,-2.77792 -3.53553,-4.29315 -3.03046,-1.51523 -7.07107,-4.29315 -7.07107,-4.29315 l -2.52538,-3.78807 c 0,0 -3.53553,-3.53553 -4.54568,-4.54569 -1.01016,-1.01015 -3.53554,-3.03045 -4.79823,-4.54568 -1.26269,-1.51523 -3.78807,-4.29315 -3.78807,-4.29315 0,0 -4.79823,-1.51523 -7.57615,-2.52538 -2.77792,-1.01015 -7.07106,-2.52538 -7.07106,-2.52538 0,0 -1.01016,-2.27285 -1.76777,-3.53554 -0.75761,-1.26269 -2.52538,-2.77792 -3.78807,-3.03045 -1.26269,-0.25254 -0.75762,-0.25254 -3.78807,-1.2627 -3.03046,-1.01015 -9.09138,-1.01015 -9.09138,-1.01015 l -7.3236,-1.76776 -4.29315,-4.04061 c 0,0 -1.01015,-1.76777 -2.77792,-2.52539 -1.76777,-0.75761 -4.79823,-2.0203 -6.06092,-2.52538 -1.26269,-0.50507 -5.3033,-2.27284 -5.3033,-2.27284 0,0 -5.05076,0.25254 -6.81853,-1.01015 -1.76776,-1.26269 -2.77792,-2.52538 -2.77792,-2.52538 l -1.76776,-4.29315"
       id="path4426"
       inkscape:connector-curvature="0" />
    <path
       style="display:inline;fill:none;fill-rule:evenodd;stroke:#0000ff;stroke-width:1px;stroke-linecap:round;stroke-linejoin:round;stroke-opacity:1"
       d="m 243.41031,804.44487 -0.71429,-10 2.14286,-5.71428 0.71429,-5 4.28571,-4.28572 -3.57143,-7.85714 3.57143,-7.14286 0,-9.28571 c 0,-3.57143 -1.42857,-13.57143 -1.42857,-13.57143 l 0,-0.71429 4.28571,-5.71428 3.57143,-8.57143 0,-7.14286 c 0,0 1.42857,-4.28571 2.14286,-7.14285 0.71429,-2.85715 0.71429,-7.85715 0.71429,-7.85715 l 5.71428,-7.85714 0,-5 c 0,0 1.42857,-6.42857 -0.71428,-11.42857 -2.14286,-5 -5,-11.42857 -5,-11.42857 0,0 -0.71429,-5 -0.71429,-7.85715 0,-2.85714 2.14286,-7.85714 2.14286,-12.14285 0,-4.28572 0.71428,-10 0.71428,-10 0,0 -0.71428,-3.57143 -1.42857,-8.57143 -0.71428,-5 -2.14286,-8.57143 -2.14286,-12.14286 l 0,-10 4.28572,-10.71428 2.14286,-21.42858 c 0,0 -1.42858,-0.71428 -1.42858,-3.57142 0,-2.85715 1.42858,0 0,-5.71429 -1.42857,-5.71429 -2.01658,-14.45531 -2.01658,-14.45531"
       id="path4362"
       inkscape:connector-curvature="0"
       sodipodi:nodetypes="cccccccscccccscccscsscsscccssc" />
    <path
       style="display:inline;fill:none;fill-rule:evenodd;stroke:#0000ff;stroke-width:1px;stroke-linecap:round;stroke-linejoin:round;stroke-opacity:1"
       d="m 247.8685,767.81875 -1.76777,-3.28299 -0.50507,-2.77792 -2.27284,-2.77792 -4.04061,-3.283 -4.04062,-3.03046 c 0,0 0,-1.01015 -1.26269,-2.0203 -1.26269,-1.01015 -4.54568,-4.04061 -4.54568,-4.04061 0,0 -1.26269,-2.77792 -1.26269,-4.29315 0,-1.51523 0,-4.04061 0.50507,-6.56599 0.50508,-2.52538 0,-6.06092 0,-6.06092 l -1.26269,-4.54568 c 0,0 -3.03045,-2.52538 -3.28299,-3.78808 -0.25254,-1.26269 0.50507,-4.79822 0.25254,-6.31345 -0.25254,-1.51523 0,-2.52538 -0.75762,-4.04061 -0.75761,-1.51523 -1.01015,-2.0203 -2.0203,-4.04061 -1.01016,-2.0203 -1.76777,-3.28299 -2.77792,-5.3033 -1.01016,-2.0203 -1.51523,-5.3033 -1.51523,-5.3033 l -1.76777,-5.55584 c 0,0 -0.50508,-1.76777 -1.01015,-3.03046 -0.50508,-1.26269 -1.51523,-3.53553 -2.02031,-5.05076 -0.50507,-1.51523 -1.51523,-5.55584 -1.51523,-5.55584"
       id="path4424"
       inkscape:connector-curvature="0" />
    <path
       style="display:inline;fill:none;fill-rule:evenodd;stroke:#0000ff;stroke-width:0.75;stroke-linecap:round;stroke-linejoin:round;stroke-miterlimit:4;stroke-dasharray:none;stroke-opacity:1"
       d="m 259.33995,525.33882 c -1.26269,-0.25254 -7.93591,-2.7346 -7.93591,-2.7346 l -2.27285,-2.0203 -5.55584,0 c -1.01015,0 -0.75761,0.50507 -3.03045,-0.25254 -2.27285,-0.75762 -4.29315,-1.76777 -4.29315,-1.76777 0,0 -1.01016,-0.75761 -3.03046,-1.26269 -2.02031,-0.50508 -4.04061,-1.26269 -5.55584,-1.76777 -1.51523,-0.50507 -3.28299,-0.75761 -4.54569,-1.51523 -1.26269,-0.75761 -4.29314,-3.53553 -4.29314,-3.53553 l -2.52539,-3.28299 -2.27284,-3.53554 c 0,0 0.50508,-0.25254 -1.01015,-1.01015 -1.51523,-0.75762 -3.78807,-2.27284 -3.78807,-2.27284 l -1.76777,-1.01016 -3.03046,-2.27284 -2.27284,-2.52538"
       id="path4370"
       inkscape:connector-curvature="0"
       sodipodi:nodetypes="cccsscssscccscccc" />
    <path
       style="display:inline;fill:none;fill-rule:evenodd;stroke:#0000ff;stroke-width:0.75;stroke-linecap:round;stroke-linejoin:round;stroke-miterlimit:4;stroke-dasharray:none;stroke-opacity:1"
       d="m 255.75583,511.74508 3.22435,-2.52538 1.26269,-1.51523 3.03046,-1.01015 2.52538,-1.76777 1.76777,-1.51523 2.27284,-1.01015 1.26269,-3.283 1.76777,-2.52538 2.77792,-2.0203 c 0,0 0.50507,-1.26269 1.76776,-2.27284 1.26269,-1.01016 1.26269,-2.02031 2.27285,-2.02031 1.01015,0 5.3033,-0.75761 5.3033,-0.75761 l 3.28299,-3.78808 4.79823,-5.3033 -0.50508,-2.77792 c 0,0 0.25254,-1.01015 1.01015,-2.0203 0.75762,-1.01015 3.53554,-4.79823 3.53554,-4.79823 0,0 -0.75762,-1.01015 0,-2.27284 0.75761,-1.26269 2.27284,-3.283 2.27284,-3.283 0,0 1.51523,-5.3033 1.51523,-6.31345 0,-1.01015 0.75761,-2.52538 0.75761,-2.52538 l 2.02031,-2.52538 c 0,0 0.75761,-4.79823 1.26269,-5.80838 0.50508,-1.01015 -0.50508,0.25254 1.26269,-2.0203 1.76777,-2.27285 2.52538,-3.03046 2.52538,-3.03046 l 1.26269,-2.52538 c 0,0 1.01016,-1.76777 1.51523,-2.77792 0.50508,-1.01015 0.50508,-1.26269 1.01015,-3.53554 0.50508,-2.27284 -0.75761,-2.0203 1.01016,-3.78807 1.76776,-1.76777 3.03045,-2.77792 3.03045,-2.77792 0,0 1.51523,-1.76776 2.02031,-3.03046 0.50508,-1.26269 1.76777,-4.54568 1.76777,-4.54568 l 1.01015,-2.77792"
       id="path4368"
       inkscape:connector-curvature="0"
       sodipodi:nodetypes="ccccccccccssccccscscsccssccssscscc" />
    <path
       style="display:inline;fill:none;fill-rule:evenodd;stroke:#0000ff;stroke-width:0.75;stroke-linecap:round;stroke-linejoin:round;stroke-miterlimit:4;stroke-dasharray:none;stroke-opacity:1"
       d="m 260.67944,553.52509 c 0.35714,-1.78571 -0.12627,-3.72307 -0.12627,-5.50879 0,-1.78571 -0.35715,-4.64286 -0.35715,-6.42857 l 0,-7.5 0,-7.14286 c 0,0 -0.71428,-0.71428 -1.78571,-5 -1.07143,-4.28571 -1.78571,-4.64286 -2.5,-8.57143 -0.71429,-3.92857 -2.85714,-11.42857 -2.85714,-14.28571 0,-2.85714 -1.07143,-11.07143 -1.07143,-11.07143 0,0 0,-2.5 0.71428,-5.71429 0.71429,-3.21428 0,-5.71428 0,-5.71428 l -0.35714,-6.42857 -2.5,-15.71429 1.42857,-5 c 0,0 -0.35714,-6.42857 -0.71428,-8.21428 -0.35715,-1.78572 -1.78572,-3.92858 -2.14286,-6.42858 -0.35714,-2.5 -0.71429,-5 -0.71429,-7.14285 0,-2.14286 0.71429,-4.64286 0.71429,-7.14286 0,-2.5 0.35714,-1.42857 0.35714,-6.78571 0,-5.35715 -0.35714,-7.14286 -0.35714,-7.14286 0,0 0,-2.14286 -1.07143,-5.35714 -1.07143,-3.21429 -1.07143,-2.85715 -1.42857,-5.35715 -0.35714,-2.5 -0.71429,-2.14285 -0.71429,-4.64285 0,-2.5 0.35715,-2.5 0.35715,-7.14286 0,-4.64286 -0.35715,-3.92857 0.35714,-9.28572 0.71429,-5.35714 1.78571,-14.28571 1.78571,-14.28571"
       id="path4364"
       inkscape:connector-curvature="0"
       sodipodi:nodetypes="cssccssscsccccssssscsssssc" />
  </g>
  <g
     inkscape:groupmode="layer"
     id="layer3"
     inkscape:label="label"
     transform="translate(-3.5432955,-196.70125)"
     sodipodi:insensitive="true">
    <ellipse
       style="display:inline;fill:#000000;fill-opacity:1;stroke:#000000;stroke-width:1.20000005;stroke-linecap:round;stroke-linejoin:round;stroke-miterlimit:4;stroke-dasharray:none;stroke-dashoffset:0;stroke-opacity:1"
       id="path4450-1-7"
       cx="-233.09628"
       cy="750.46082"
       rx="4.2349515"
       ry="4.2895164"
       transform="scale(-1,1)" />
    <path
       style="display:inline;fill:none;fill-rule:evenodd;stroke:#000000;stroke-width:1px;stroke-linecap:butt;stroke-linejoin:miter;stroke-opacity:1"
       d="m 86.00308,713.97117 144.65079,36.2333"
       id="path4452-2-0"
       inkscape:connector-curvature="0"
       sodipodi:nodetypes="cc" />
    <g
       transform="translate(-25.13297,194.21981)"
       style="font-style:normal;font-weight:normal;font-size:25px;line-height:125%;font-family:sans-serif;letter-spacing:0px;word-spacing:0px;display:inline;fill:#000000;fill-opacity:1;stroke:none;stroke-width:1px;stroke-linecap:butt;stroke-linejoin:miter;stroke-opacity:1"
       id="text4323">
      <path
         d="m 89.238495,520.33051 4.02832,0 0,-13.90381 -4.382324,0.8789 0,-2.24609 4.35791,-0.87891 2.46582,0 0,16.14991 4.028321,0 0,2.07519 -10.498047,0 0,-2.07519 z"
         id="path4263"
         inkscape:connector-curvature="0" />
    </g>
    <rect
       style="display:inline;fill:none;fill-opacity:1;stroke:#000000;stroke-width:1.20000005;stroke-linecap:round;stroke-linejoin:round;stroke-miterlimit:4;stroke-dasharray:none;stroke-dashoffset:0;stroke-opacity:1"
       id="rect4343"
       width="37.142857"
       height="34.285713"
       x="49.482494"
       y="691.0799" />
    <ellipse
       style="display:inline;fill:none;fill-opacity:1;stroke:#000000;stroke-width:1.20000005;stroke-linecap:round;stroke-linejoin:round;stroke-miterlimit:4;stroke-dasharray:none;stroke-dashoffset:0;stroke-opacity:1"
       id="path4450-5"
       cx="199.2708"
       cy="855.92523"
       rx="7.8571429"
       ry="8.2142859" />
    <path
       style="display:inline;fill:none;fill-rule:evenodd;stroke:#000000;stroke-width:1px;stroke-linecap:butt;stroke-linejoin:miter;stroke-opacity:1"
       d="m 113.19938,889.49671 78.21429,-31.07143"
       id="path4452-6"
       inkscape:connector-curvature="0"
       sodipodi:nodetypes="cc" />
    <g
       transform="translate(-25.132972,194.21981)"
       style="font-style:normal;font-weight:normal;font-size:25px;line-height:125%;font-family:sans-serif;letter-spacing:0px;word-spacing:0px;display:inline;fill:#000000;fill-opacity:1;stroke:none;stroke-width:1px;stroke-linecap:butt;stroke-linejoin:miter;stroke-opacity:1"
       id="text4327">
      <path
         d="m 117.14719,707.06232 8.60596,0 0,2.07519 -11.57226,0 0,-2.07519 q 1.4038,-1.45264 3.8208,-3.89405 2.4292,-2.45361 3.05175,-3.16162 1.18409,-1.33056 1.64795,-2.24609 0.47608,-0.92774 0.47608,-1.81885 0,-1.45264 -1.02539,-2.36816 -1.01319,-0.91553 -2.64893,-0.91553 -1.15967,0 -2.45361,0.40283 -1.28174,0.40283 -2.74658,1.22071 l 0,-2.49024 q 1.48925,-0.59814 2.7832,-0.90332 1.29394,-0.30518 2.36816,-0.30518 2.83203,0 4.5166,1.41602 1.68457,1.41602 1.68457,3.78418 0,1.12305 -0.42724,2.13623 -0.41504,1.00098 -1.52588,2.36816 -0.30518,0.35401 -1.94092,2.05079 -1.63574,1.68457 -4.61426,4.72412 z"
         id="path4269"
         inkscape:connector-curvature="0" />
    </g>
    <rect
       style="display:inline;fill:none;fill-opacity:1;stroke:#000000;stroke-width:1.20000005;stroke-linecap:round;stroke-linejoin:round;stroke-miterlimit:4;stroke-dasharray:none;stroke-dashoffset:0;stroke-opacity:1"
       id="rect4343-3"
       width="37.142857"
       height="34.285713"
       x="76.719215"
       y="878.05408" />
    <ellipse
       style="display:inline;fill:none;fill-opacity:1;stroke:#000000;stroke-width:1.20000005;stroke-linecap:round;stroke-linejoin:round;stroke-miterlimit:4;stroke-dasharray:none;stroke-dashoffset:0;stroke-opacity:1"
       id="path4450"
       cx="181.29561"
       cy="374.79633"
       rx="7.8571429"
       ry="8.2142859" />
    <path
       style="display:inline;fill:none;fill-rule:evenodd;stroke:#000000;stroke-width:1px;stroke-linecap:butt;stroke-linejoin:miter;stroke-opacity:1"
       d="m 77.72417,402.65346 95.71428,-25.35715"
       id="path4452"
       inkscape:connector-curvature="0"
       sodipodi:nodetypes="cc" />
    <g
       transform="translate(-25.13297,194.21981)"
       style="font-style:normal;font-weight:normal;font-size:25px;line-height:125%;font-family:sans-serif;letter-spacing:0px;word-spacing:0px;display:inline;fill:#000000;fill-opacity:1;stroke:none;stroke-width:1px;stroke-linecap:butt;stroke-linejoin:miter;stroke-opacity:1"
       id="text4331">
      <path
         d="m 85.924805,211.50758 q 1.770019,0.37842 2.758789,1.57471 1.000976,1.19629 1.000976,2.9541 0,2.69776 -1.855468,4.17481 -1.855469,1.47705 -5.273438,1.47705 -1.147461,0 -2.368164,-0.23194 -1.208496,-0.21972 -2.502441,-0.67138 l 0,-2.38037 q 1.02539,0.59814 2.246093,0.90332 1.220703,0.30517 2.55127,0.30517 2.319336,0 3.527832,-0.91552 1.220703,-0.91553 1.220703,-2.66114 0,-1.61133 -1.135254,-2.51465 -1.123047,-0.91552 -3.137207,-0.91552 l -2.124023,0 0,-2.02637 2.221679,0 q 1.818848,0 2.783203,-0.72022 0.964356,-0.73242 0.964356,-2.0996 0,-1.40381 -1.000977,-2.14844 -0.988769,-0.75684 -2.844238,-0.75684 -1.013184,0 -2.172851,0.21973 -1.159668,0.21972 -2.55127,0.68359 l 0,-2.19726 q 1.403809,-0.39063 2.624512,-0.58594 1.23291,-0.19531 2.319336,-0.19531 2.807617,0 4.443359,1.28173 1.635742,1.26954 1.635742,3.44239 0,1.51367 -0.866699,2.56347 -0.866699,1.0376 -2.46582,1.44043 z"
         id="path4260"
         inkscape:connector-curvature="0" />
    </g>
    <rect
       style="display:inline;fill:none;fill-opacity:1;stroke:#000000;stroke-width:1.20000005;stroke-linecap:round;stroke-linejoin:round;stroke-miterlimit:4;stroke-dasharray:none;stroke-dashoffset:0;stroke-opacity:1"
       id="punto3"
       width="37.142857"
       height="34.285713"
       x="39.576366"
       y="389.48264"
       inkscape:label="#rect4343-6" />
    <ellipse
       style="display:inline;fill:none;fill-opacity:1;stroke:#000000;stroke-width:1.20000005;stroke-linecap:round;stroke-linejoin:round;stroke-miterlimit:4;stroke-dasharray:none;stroke-dashoffset:0;stroke-opacity:1"
       id="path4450-2"
       cx="-246.89185"
       cy="883.06818"
       rx="7.8571429"
       ry="8.2142859"
       transform="scale(-1,1)" />
    <path
       style="display:inline;fill:none;fill-rule:evenodd;stroke:#000000;stroke-width:1px;stroke-linecap:butt;stroke-linejoin:miter;stroke-opacity:1"
       d="m 340.32326,985.93217 -88.0997,-96.82852"
       id="path4452-9"
       inkscape:connector-curvature="0"
       sodipodi:nodetypes="cc" />
    <g
       transform="translate(-25.13297,194.21982)"
       style="font-style:normal;font-weight:normal;font-size:25px;line-height:125%;font-family:sans-serif;letter-spacing:0px;word-spacing:0px;display:inline;fill:#000000;fill-opacity:1;stroke:none;stroke-width:1px;stroke-linecap:butt;stroke-linejoin:miter;stroke-opacity:1"
       id="text4335">
      <path
         d="m 384.24423,795.24707 -6.22558,9.729 6.22558,0 0,-9.729 z m -0.64697,-2.14844 3.10059,0 0,11.87744 2.60009,0 0,2.05079 -2.60009,0 0,4.29687 -2.45362,0 0,-4.29687 -8.22754,0 0,-2.38038 7.58057,-11.54785 z"
         id="path4272"
         inkscape:connector-curvature="0" />
    </g>
    <rect
       style="display:inline;fill:none;fill-opacity:1;stroke:#000000;stroke-width:1.20000005;stroke-linecap:round;stroke-linejoin:round;stroke-miterlimit:4;stroke-dasharray:none;stroke-dashoffset:0;stroke-opacity:1"
       id="rect4343-7"
       width="37.142857"
       height="34.285713"
       x="340.08145"
       y="979.06427" />
    <ellipse
       style="display:inline;fill:none;fill-opacity:1;stroke:#000000;stroke-width:1.20000005;stroke-linecap:round;stroke-linejoin:round;stroke-miterlimit:4;stroke-dasharray:none;stroke-dashoffset:0;stroke-opacity:1"
       id="path4450-1"
       cx="-324.0347"
       cy="830.211"
       rx="7.8571429"
       ry="8.2142859"
       transform="scale(-1,1)" />
    <path
       style="display:inline;fill:none;fill-rule:evenodd;stroke:#000000;stroke-width:1px;stroke-linecap:butt;stroke-linejoin:miter;stroke-opacity:1"
       d="m 327.70327,837.4764 22.85715,27.14284"
       id="path4452-2"
       inkscape:connector-curvature="0"
       sodipodi:nodetypes="cc" />
    <g
       transform="translate(-25.13297,194.21982)"
       style="font-style:normal;font-weight:normal;font-size:25px;line-height:125%;font-family:sans-serif;letter-spacing:0px;word-spacing:0px;display:inline;fill:#000000;fill-opacity:1;stroke:none;stroke-width:1px;stroke-linecap:butt;stroke-linejoin:miter;stroke-opacity:1"
       id="text4339">
      <path
         d="m 388.18793,661.82324 9.68017,0 0,2.0752 -7.42187,0 0,4.46777 q 0.53711,-0.1831 1.07422,-0.26855 0.53711,-0.0977 1.07422,-0.0977 3.05175,0 4.83398,1.67236 1.78223,1.67237 1.78223,4.52881 0,2.9419 -1.83106,4.57764 -1.83105,1.62353 -5.16357,1.62353 -1.14746,0 -2.34375,-0.19531 -1.18408,-0.19531 -2.45362,-0.58594 l 0,-2.47802 q 1.09864,0.59814 2.27051,0.89111 1.17188,0.29297 2.47803,0.29297 2.11182,0 3.34473,-1.11084 1.23291,-1.11084 1.23291,-3.01514 0,-1.9043 -1.23291,-3.01513 -1.23291,-1.11084 -3.34473,-1.11084 -0.98877,0 -1.97754,0.21972 -0.97656,0.21973 -2.00195,0.6836 l 0,-9.15528 z"
         id="path4266"
         inkscape:connector-curvature="0" />
    </g>
    <rect
       style="display:inline;fill:none;fill-opacity:1;stroke:#000000;stroke-width:1.20000005;stroke-linecap:round;stroke-linejoin:round;stroke-miterlimit:4;stroke-dasharray:none;stroke-dashoffset:0;stroke-opacity:1"
       id="rect4343-5"
       width="37.142857"
       height="34.285713"
       x="350.11212"
       y="849.30414" />
    <path
       style="display:inline;fill:none;fill-rule:evenodd;stroke:#000000;stroke-width:4;stroke-linecap:butt;stroke-linejoin:miter;stroke-miterlimit:4;stroke-dasharray:none;stroke-opacity:1"
       d="m 305.72127,220.30523 108.92857,0"
       id="path4379"
       inkscape:connector-curvature="0" />
    <text
       xml:space="preserve"
       style="font-style:normal;font-weight:normal;font-size:25px;line-height:125%;font-family:sans-serif;letter-spacing:0px;word-spacing:0px;display:inline;fill:#000000;fill-opacity:1;stroke:none;stroke-width:1px;stroke-linecap:butt;stroke-linejoin:miter;stroke-opacity:1"
       x="311.62704"
       y="246.61771"
       id="text4381"
       sodipodi:linespacing="125%"><tspan
         sodipodi:role="line"
         id="tspan4383"
         x="311.62704"
         y="246.61771">200 m</tspan></text>
  </g>
</svg>
